<?xml version="1.0" encoding="UTF-8"?>
<svg version="1.1" xmlns="http://www.w3.org/2000/svg" width="500" height="500">
<path d="M0 0 C165 0 330 0 500 0 C500 165 500 330 500 500 C335 500 170 500 0 500 C0 335 0 170 0 0 Z " fill="#FEFEFE" transform="translate(0,0)"/>
<path d="M0 0 C7.59801078 5.32449748 13.58836365 12.47823571 15.51953125 21.765625 C15.60575781 23.30342437 15.64156021 24.84449071 15.63978577 26.38470459 C15.64184776 27.76866676 15.64184776 27.76866676 15.64395142 29.18058777 C15.64035614 30.18543716 15.63676086 31.19028656 15.63305664 32.22558594 C15.63320267 33.28930923 15.63334869 34.35303253 15.63349915 35.44898987 C15.63280231 38.96601397 15.62502058 42.48298515 15.6171875 46 C15.61532251 48.43808971 15.61389899 50.8761798 15.61289978 53.31427002 C15.60908101 59.73237136 15.59925615 66.15045008 15.5881958 72.56854248 C15.57796795 79.11730646 15.57339921 85.66607409 15.56835938 92.21484375 C15.55763334 105.06511382 15.54075669 117.91536821 15.51953125 130.765625 C1.75849994 130.85850071 -12.00245621 130.92947934 -25.76373768 130.97287369 C-32.15437238 130.99370582 -38.54479187 131.02194391 -44.93530273 131.06738281 C-51.10800465 131.11099597 -57.28050018 131.13479498 -63.45334435 131.14513397 C-65.80275405 131.15249756 -68.15215306 131.16687668 -70.50147438 131.18854523 C-73.80436826 131.21778418 -77.10642038 131.22157237 -80.40942383 131.21972656 C-81.37040482 131.23410767 -82.3313858 131.24848877 -83.32148743 131.26330566 C-94.23028624 131.19778087 -102.52180399 127.68843321 -110.31640625 120.12890625 C-117.73916141 112.02282886 -120.04112414 103.66860874 -119.78125 92.78125 C-118.80537659 82.99716851 -113.52837054 76.31342815 -106.48046875 69.765625 C-98.90523605 63.79768337 -91.46834071 62.45437166 -82.046875 62.5703125 C-81.16893784 62.5731424 -80.29100067 62.57597229 -79.38645935 62.57888794 C-76.6051523 62.59000902 -73.82417711 62.61509828 -71.04296875 62.640625 C-69.14779114 62.65066525 -67.25260843 62.65978927 -65.35742188 62.66796875 C-60.73164458 62.68992185 -56.10611277 62.7243954 -51.48046875 62.765625 C-51.51188965 60.92786499 -51.51188965 60.92786499 -51.54394531 59.05297852 C-51.61676685 54.47399752 -51.66242089 49.89506693 -51.70019531 45.31567383 C-51.72021521 43.3400001 -51.74743967 41.36438491 -51.78222656 39.38891602 C-51.83117082 36.5364735 -51.853534 33.68481951 -51.87109375 30.83203125 C-51.89173889 29.95978409 -51.91238403 29.08753693 -51.93365479 28.18885803 C-51.936978 18.94717037 -48.508725 12.21804091 -42.265625 5.55078125 C-30.73506257 -5.97978118 -14.28454873 -8.36359351 0 0 Z " fill="#01A43F" transform="translate(171.48046875,179.234375)"/>
<path d="M0 0 C0.77927856 0.00201416 1.55855713 0.00402832 2.3614502 0.00610352 C5.24232969 0.01648203 8.12312456 0.04440392 11.00390625 0.0703125 C20.68734375 0.1321875 20.68734375 0.1321875 30.56640625 0.1953125 C30.56640625 22.3053125 30.56640625 44.4153125 30.56640625 67.1953125 C23.51265625 67.2984375 16.45890625 67.4015625 9.19140625 67.5078125 C6.98533691 67.55333252 4.77926758 67.59885254 2.50634766 67.64575195 C0.72690341 67.66037644 -1.05255778 67.67311245 -2.83203125 67.68359375 C-3.73091064 67.70917358 -4.62979004 67.73475342 -5.5559082 67.7611084 C-13.56838753 67.76653544 -19.58499483 65.04197908 -25.984375 60.30859375 C-33.55314668 52.57200008 -37.47078084 44.36093711 -37.74609375 33.5078125 C-37.59561615 23.26279587 -33.81031991 16.71432818 -26.80078125 9.39453125 C-18.75380608 1.91854607 -10.75031381 -0.13286846 0 0 Z " fill="#095D40" transform="translate(89.43359375,241.8046875)"/>
<path d="M0 0 C7.60973094 5.33271067 13.5666593 12.47436827 15.51953125 21.765625 C15.60239415 23.16961552 15.63739746 24.57697148 15.63305664 25.98339844 C15.63293579 26.81532715 15.63281494 27.64725586 15.63269043 28.50439453 C15.62757446 29.36919434 15.6224585 30.23399414 15.6171875 31.125 C15.61618042 31.92695801 15.61517334 32.72891602 15.61413574 33.55517578 C15.60891598 36.5420068 15.59495472 39.52881738 15.58203125 42.515625 C15.56140625 49.198125 15.54078125 55.880625 15.51953125 62.765625 C-6.59046875 62.765625 -28.70046875 62.765625 -51.48046875 62.765625 C-51.56296875 56.02125 -51.64546875 49.276875 -51.73046875 42.328125 C-51.76688477 40.21736572 -51.80330078 38.10660645 -51.84082031 35.93188477 C-51.85251842 34.23194389 -51.86270758 32.53199169 -51.87109375 30.83203125 C-51.90178955 29.5408136 -51.90178955 29.5408136 -51.93310547 28.22351074 C-51.93836046 18.96552203 -48.52141764 12.2315959 -42.265625 5.55078125 C-30.73506257 -5.97978118 -14.28454873 -8.36359351 0 0 Z " fill="#095D40" transform="translate(171.48046875,179.234375)"/>
<path d="M0 0 C3.3 -0.0825 6.6 -0.165 10 -0.25 C11.02351563 -0.28641602 12.04703125 -0.32283203 13.1015625 -0.36035156 C19.27260695 -0.43438499 23.87084848 0.44947164 29 4 C33.3784635 8.49368622 35.09026787 12.60533947 35.375 18.8125 C35.22574031 25.49933425 32.82129218 29.85180922 28.5625 34.875 C24.55426163 38.19890499 21.08719846 39.25873863 15.91796875 39.1953125 C14.65762817 39.18781982 14.65762817 39.18781982 13.37182617 39.18017578 C12.32099854 39.16196777 11.2701709 39.14375977 10.1875 39.125 C6.825625 39.08375 3.46375 39.0425 0 39 C0 26.13 0 13.26 0 0 Z " fill="#09A944" transform="translate(291,219)"/>
<path d="M0 0 C4.29 0 8.58 0 13 0 C13.98447574 3.51942552 14.96272878 7.04038615 15.9375 10.5625 C16.35418945 12.0484668 16.35418945 12.0484668 16.77929688 13.56445312 C18.19758533 18.70788474 19.41214823 23.69445179 20 29 C20.66 29 21.32 29 22 29 C22.3403125 27.081875 22.3403125 27.081875 22.6875 25.125 C23.74233692 19.82788418 25.12514016 14.64079406 26.5625 9.4375 C26.78446045 8.62748535 27.0064209 7.8174707 27.23510742 6.98291016 C28.87541303 1.12458697 28.87541303 1.12458697 30 0 C33.96 0 37.92 0 42 0 C42 12.87 42 25.74 42 39 C39.36 39 36.72 39 34 39 C33.505 26.625 33.505 26.625 33 14 C30.73776365 21.85236836 30.73776365 21.85236836 28.48266602 29.70678711 C28.20092529 30.6788208 27.91918457 31.65085449 27.62890625 32.65234375 C27.34088135 33.65257568 27.05285645 34.65280762 26.75610352 35.68334961 C26 38 26 38 25 39 C22.32941149 39.14115161 19.67567762 39.04247107 17 39 C13.80096518 30.8424612 11.12551056 22.50204223 9 14 C8.67 22.25 8.34 30.5 8 39 C5.36 39 2.72 39 0 39 C0 26.13 0 13.26 0 0 Z " fill="#07A843" transform="translate(206,219)"/>
<path d="M0 0 C4.29 0 8.58 0 13 0 C13 4.29 13 8.58 13 13 C17.62 13 22.24 13 27 13 C27 17.62 27 22.24 27 27 C22.38 27 17.76 27 13 27 C13 31.29 13 35.58 13 40 C8.71 40 4.42 40 0 40 C0 35.71 0 31.42 0 27 C-4.62 27 -9.24 27 -14 27 C-14 22.38 -14 17.76 -14 13 C-9.38 13 -4.76 13 0 13 C0 8.71 0 4.42 0 0 Z " fill="#085E3F" transform="translate(147,256)"/>
<path d="M0 0 C9.24 0 18.48 0 28 0 C28 1.98 28 3.96 28 6 C21.4 6 14.8 6 8 6 C8 9.3 8 12.6 8 16 C14.27 16 20.54 16 27 16 C27 18.31 27 20.62 27 23 C20.73 23 14.46 23 8 23 C8 26.3 8 29.6 8 33 C14.93 33 21.86 33 29 33 C29 34.98 29 36.96 29 39 C19.43 39 9.86 39 0 39 C0 26.13 0 13.26 0 0 Z " fill="#0FAB49" transform="translate(256,219)"/>
<path d="M0 0 C9.24 0 18.48 0 28 0 C28 1.98 28 3.96 28 6 C21.4 6 14.8 6 8 6 C8 9.3 8 12.6 8 16 C13.94 16 19.88 16 26 16 C26 18.31 26 20.62 26 23 C20.06 23 14.12 23 8 23 C8 28.28 8 33.56 8 39 C5.36 39 2.72 39 0 39 C0 26.13 0 13.26 0 0 Z " fill="#0CAA47" transform="translate(349,219)"/>
<path d="M0 0 C2.97 0 5.94 0 9 0 C10.33858524 2.28874173 11.67101014 4.58069656 13 6.875 C13.3815625 7.52597656 13.763125 8.17695313 14.15625 8.84765625 C17 13.7734375 17 13.7734375 17 16 C17.66 16 18.32 16 19 16 C19.20625 15.21625 19.4125 14.4325 19.625 13.625 C21.4956706 8.69323204 23.45847296 3.97266946 27 0 C30.059749 -0.90251589 31.78018383 -0.55514072 35 0 C33.92113675 3.18110534 32.51402169 5.83884073 30.65234375 8.609375 C23.86313957 18.85528523 21.47737621 26.71834089 22 39 C19.36 39 16.72 39 14 39 C14.07863281 38.10023438 14.15726562 37.20046875 14.23828125 36.2734375 C14.49334629 22.87581091 8.40997691 13.82476823 1.17749023 2.87915039 C0 1 0 1 0 0 Z " fill="#09A945" transform="translate(378,219)"/>
<path d="M0 0 C11.42857143 0 11.42857143 0 16 4 C19.11893326 8.67839989 18.58602209 13.5232257 18 19 C16.32191414 22.60477703 15.14562814 24.27989088 11.8125 26.375 C9 27 9 27 0 27 C0 18.09 0 9.18 0 0 Z " fill="#FAFDFB" transform="translate(299,225)"/>
<path d="M0 0 C2.64 0 5.28 0 8 0 C8 12.87 8 25.74 8 39 C5.36 39 2.72 39 0 39 C0 26.13 0 13.26 0 0 Z " fill="#10AB4A" transform="translate(332,219)"/>
<path d="M0 0 C6.75 0.75 6.75 0.75 9 3 C9.33015665 6.10347254 9.50531294 8.15781176 7.875 10.875 C6 12 6 12 0 12 C0 8.04 0 4.08 0 0 Z " fill="#989898" transform="translate(203,269)"/>
<path d="M0 0 C0.66 0 1.32 0 2 0 C2.33 3.96 2.66 7.92 3 12 C1.68 11.34 0.36 10.68 -1 10 C-1.66 10.66 -2.32 11.32 -3 12 C-5.5625 12.1875 -5.5625 12.1875 -8 12 C-9 11 -9 11 -9.1875 8.0625 C-9 5 -9 5 -7 3 C-4.4375 3.25 -4.4375 3.25 -2 4 C-1.67 4.66 -1.34 5.32 -1 6 C-0.67 4.02 -0.34 2.04 0 0 Z " fill="#A2A2A2" transform="translate(334,269)"/>
<path d="M0 0 C0.99 1.485 0.99 1.485 2 3 C4.52733235 3.65555119 4.52733235 3.65555119 7 4 C8 5 8 5 8.1875 7.4375 C8 10 8 10 6 12 C4.02 12 2.04 12 0 12 C0 8.04 0 4.08 0 0 Z " fill="#252525" transform="translate(243,269)"/>
<path d="M0 0 C0.33 0 0.66 0 1 0 C1 3.96 1 7.92 1 12 C-1.31 12 -3.62 12 -6 12 C-6.625 8.625 -6.625 8.625 -7 5 C-6.34 4.34 -5.68 3.68 -5 3 C-3.68 3 -2.36 3 -1 3 C-0.67 2.01 -0.34 1.02 0 0 Z " fill="#191919" transform="translate(286,269)"/>
<path d="M0 0 C3.125 0.375 3.125 0.375 6 1 C6.04241723 3.33294775 6.04092937 5.66702567 6 8 C5 9 5 9 1.9375 9.0625 C0.968125 9.041875 -0.00125 9.02125 -1 9 C-1.625 5.625 -1.625 5.625 -2 2 C-1.34 1.34 -0.68 0.68 0 0 Z " fill="#8B8B8B" transform="translate(255,272)"/>
<path d="M0 0 C1.98 0 3.96 0 6 0 C6.66 0.66 7.32 1.32 8 2 C7.625 4.625 7.625 4.625 7 7 C5.02 7 3.04 7 1 7 C1 8.65 1 10.3 1 12 C0.67 12 0.34 12 0 12 C0 8.04 0 4.08 0 0 Z " fill="#333333" transform="translate(295,269)"/>
<path d="M0 0 C1.65 0.33 3.3 0.66 5 1 C5 3.64 5 6.28 5 9 C3.02 9 1.04 9 -1 9 C-1.33 7.68 -1.66 6.36 -2 5 C-0.35 4.67 1.3 4.34 3 4 C3 3.01 3 2.02 3 1 C1.02 1.99 1.02 1.99 -1 3 C-0.67 2.01 -0.34 1.02 0 0 Z " fill="#585858" transform="translate(216,272)"/>
<path d="M0 0 C2.625 0.375 2.625 0.375 5 1 C5 2.32 5 3.64 5 5 C3.02 5 1.04 5 -1 5 C-0.67 5.66 -0.34 6.32 0 7 C1.65 6.67 3.3 6.34 5 6 C4.67 6.99 4.34 7.98 4 9 C2.33388095 9.042721 0.66617115 9.04063832 -1 9 C-2 8 -2 8 -2.1875 5.0625 C-2 2 -2 2 0 0 Z " fill="#545454" transform="translate(327,272)"/>
<path d="M0 0 C1.65 0.33 3.3 0.66 5 1 C5 3.64 5 6.28 5 9 C3.02 9 1.04 9 -1 9 C-0.67 7.35 -0.34 5.7 0 4 C1.32 4 2.64 4 4 4 C3.67 3.34 3.34 2.68 3 2 C1.68 2.33 0.36 2.66 -1 3 C-0.67 2.01 -0.34 1.02 0 0 Z " fill="#545454" transform="translate(265,272)"/>
<path d="M0 0 C1.65 0.33 3.3 0.66 5 1 C5 3.31 5 5.62 5 8 C4.67 7.01 4.34 6.02 4 5 C3.01 5.66 2.02 6.32 1 7 C1.66 7.66 2.32 8.32 3 9 C1.68 9 0.36 9 -1 9 C-0.835 8.2575 -0.67 7.515 -0.5 6.75 C0.11925696 3.80993422 0.11925696 3.80993422 0 0 Z " fill="#212121" transform="translate(306,272)"/>
<path d="M0 0 C2.125 0.375 2.125 0.375 4 1 C4 2.65 4 4.3 4 6 C2.35 6.33 0.7 6.66 -1 7 C-1.625 4.625 -1.625 4.625 -2 2 C-1.34 1.34 -0.68 0.68 0 0 Z " fill="#DCDCDC" transform="translate(282,273)"/>
<path d="M0 0 C0.99 0.33 1.98 0.66 3 1 C3 2.65 3 4.3 3 6 C1.0625 6.5625 1.0625 6.5625 -1 7 C-2 6 -2 6 -2.0625 3.4375 C-2.041875 2.633125 -2.02125 1.82875 -2 1 C-1.34 0.67 -0.68 0.34 0 0 Z " fill="#EAEAEA" transform="translate(246,273)"/>
<path d="M0 0 C0.66 0 1.32 0 2 0 C2 0.99 2 1.98 2 3 C3.32 3.33 4.64 3.66 6 4 C5.01 4.33 4.02 4.66 3 5 C2.67 7.31 2.34 9.62 2 12 C1.34 12 0.68 12 0 12 C0 8.04 0 4.08 0 0 Z " fill="#424242" transform="translate(232,269)"/>
<path d="M0 0 C1.65 0 3.3 0 5 0 C5 0.66 5 1.32 5 2 C4.01 2 3.02 2 2 2 C2 4.31 2 6.62 2 9 C1.34 9 0.68 9 0 9 C0 6.03 0 3.06 0 0 Z " fill="#575757" transform="translate(273,272)"/>
<path d="M0 0 C0 0.66 0 1.32 0 2 C-0.928125 2.1546875 -0.928125 2.1546875 -1.875 2.3125 C-4.36526484 2.87525373 -4.36526484 2.87525373 -6 6 C-6.66 5.34 -7.32 4.68 -8 4 C-8 3.01 -8 2.02 -8 1 C-3.375 -1.125 -3.375 -1.125 0 0 Z " fill="#C8C8C8" transform="translate(269,274)"/>
<path d="M0 0 C0.33 0 0.66 0 1 0 C1 2.64 1 5.28 1 8 C-0.65 7.67 -2.3 7.34 -4 7 C-4 6.01 -4 5.02 -4 4 C-3.01 4 -2.02 4 -1 4 C-0.67 2.68 -0.34 1.36 0 0 Z " fill="#ACACAC" transform="translate(311,273)"/>
<path d="M0 0 C1.65 0 3.3 0 5 0 C5 1.32 5 2.64 5 4 C3.35 4 1.7 4 0 4 C0 2.68 0 1.36 0 0 Z " fill="#E7E7E7" transform="translate(296,271)"/>
<path d="M0 0 C1.66666667 0 3.33333333 0 5 0 C5 0.99 5 1.98 5 3 C2.69 3.33 0.38 3.66 -2 4 C-1 1 -1 1 0 0 Z " fill="#DEDEDE" transform="translate(214,273)"/>
<path d="M0 0 C1.32 0 2.64 0 4 0 C4 1.32 4 2.64 4 4 C2.35 3.67 0.7 3.34 -1 3 C-0.67 2.01 -0.34 1.02 0 0 Z " fill="#8A8A8A" transform="translate(306,272)"/>
</svg>
