<?xml version="1.0" encoding="UTF-8"?>
<svg version="1.1" xmlns="http://www.w3.org/2000/svg" width="500" height="500">
<path d="M0 0 C165 0 330 0 500 0 C500 165 500 330 500 500 C335 500 170 500 0 500 C0 335 0 170 0 0 Z " fill="#FEFEFE" transform="translate(0,0)"/>
<path d="M0 0 C7.59801078 5.32449748 13.58836365 12.47823571 15.51953125 21.765625 C15.60575781 23.30342437 15.64156021 24.84449071 15.63978577 26.38470459 C15.64184776 27.76866676 15.64184776 27.76866676 15.64395142 29.18058777 C15.64035614 30.18543716 15.63676086 31.19028656 15.63305664 32.22558594 C15.63320267 33.28930923 15.63334869 34.35303253 15.63349915 35.44898987 C15.63280231 38.96601397 15.62502058 42.48298515 15.6171875 46 C15.61532251 48.43808971 15.61389899 50.8761798 15.61289978 53.31427002 C15.60908101 59.73237136 15.59925615 66.15045008 15.5881958 72.56854248 C15.57796795 79.11730646 15.57339921 85.66607409 15.56835938 92.21484375 C15.55763334 105.06511382 15.54075669 117.91536821 15.51953125 130.765625 C1.75849994 130.85850071 -12.00245621 130.92947934 -25.76373768 130.97287369 C-32.15437238 130.99370582 -38.54479187 131.02194391 -44.93530273 131.06738281 C-51.10800465 131.11099597 -57.28050018 131.13479498 -63.45334435 131.14513397 C-65.80275405 131.15249756 -68.15215306 131.16687668 -70.50147438 131.18854523 C-73.80436826 131.21778418 -77.10642038 131.22157237 -80.40942383 131.21972656 C-81.37040482 131.23410767 -82.3313858 131.24848877 -83.32148743 131.26330566 C-94.23028624 131.19778087 -102.52180399 127.68843321 -110.31640625 120.12890625 C-117.73916141 112.02282886 -120.04112414 103.66860874 -119.78125 92.78125 C-118.80537659 82.99716851 -113.52837054 76.31342815 -106.48046875 69.765625 C-98.90523605 63.79768337 -91.46834071 62.45437166 -82.046875 62.5703125 C-81.16893784 62.5731424 -80.29100067 62.57597229 -79.38645935 62.57888794 C-76.6051523 62.59000902 -73.82417711 62.61509828 -71.04296875 62.640625 C-69.14779114 62.65066525 -67.25260843 62.65978927 -65.35742188 62.66796875 C-60.73164458 62.68992185 -56.10611277 62.7243954 -51.48046875 62.765625 C-51.51188965 60.92786499 -51.51188965 60.92786499 -51.54394531 59.05297852 C-51.61676685 54.47399752 -51.66242089 49.89506693 -51.70019531 45.31567383 C-51.72021521 43.3400001 -51.74743967 41.36438491 -51.78222656 39.38891602 C-51.83117082 36.5364735 -51.853534 33.68481951 -51.87109375 30.83203125 C-51.89173889 29.95978409 -51.91238403 29.08753693 -51.93365479 28.18885803 C-51.936978 18.94717037 -48.508725 12.21804091 -42.265625 5.55078125 C-30.73506257 -5.97978118 -14.28454873 -8.36359351 0 0 Z " fill="#01A43F" transform="translate(171.48046875,179.234375)"/>
<path d="M0 0 C0.77927856 0.00201416 1.55855713 0.00402832 2.3614502 0.00610352 C5.24232969 0.01648203 8.12312456 0.04440392 11.00390625 0.0703125 C20.68734375 0.1321875 20.68734375 0.1321875 30.56640625 0.1953125 C30.56640625 22.3053125 30.56640625 44.4153125 30.56640625 67.1953125 C23.51265625 67.2984375 16.45890625 67.4015625 9.19140625 67.5078125 C6.98533691 67.55333252 4.77926758 67.59885254 2.50634766 67.64575195 C0.72690341 67.66037644 -1.05255778 67.67311245 -2.83203125 67.68359375 C-3.73091064 67.70917358 -4.62979004 67.73475342 -5.5559082 67.7611084 C-13.56838753 67.76653544 -19.58499483 65.04197908 -25.984375 60.30859375 C-33.55314668 52.57200008 -37.47078084 44.36093711 -37.74609375 33.5078125 C-37.59561615 23.26279587 -33.81031991 16.71432818 -26.80078125 9.39453125 C-18.75380608 1.91854607 -10.75031381 -0.13286846 0 0 Z " fill="#095D40" transform="translate(89.43359375,241.8046875)"/>
<path d="M0 0 C7.60973094 5.33271067 13.5666593 12.47436827 15.51953125 21.765625 C15.60239415 23.16961552 15.63739746 24.57697148 15.63305664 25.98339844 C15.63293579 26.81532715 15.63281494 27.64725586 15.63269043 28.50439453 C15.62757446 29.36919434 15.6224585 30.23399414 15.6171875 31.125 C15.61618042 31.92695801 15.61517334 32.72891602 15.61413574 33.55517578 C15.60891598 36.5420068 15.59495472 39.52881738 15.58203125 42.515625 C15.56140625 49.198125 15.54078125 55.880625 15.51953125 62.765625 C-6.59046875 62.765625 -28.70046875 62.765625 -51.48046875 62.765625 C-51.56296875 56.02125 -51.64546875 49.276875 -51.73046875 42.328125 C-51.76688477 40.21736572 -51.80330078 38.10660645 -51.84082031 35.93188477 C-51.85251842 34.23194389 -51.86270758 32.53199169 -51.87109375 30.83203125 C-51.90178955 29.5408136 -51.90178955 29.5408136 -51.93310547 28.22351074 C-51.93836046 18.96552203 -48.52141764 12.2315959 -42.265625 5.55078125 C-30.73506257 -5.97978118 -14.28454873 -8.36359351 0 0 Z " fill="#095D40" transform="translate(171.48046875,179.234375)"/>
<path d="M0 0 C23.36842105 0 23.36842105 0 29.875 5.375 C35.08789001 11.81445237 34.75776893 19.03874866 34 27 C31.34767415 32.69758887 26.79086505 36.5742389 21 39 C18.61816406 39.22705078 18.61816406 39.22705078 16.015625 39.1953125 C15.17290039 39.19031738 14.33017578 39.18532227 13.46191406 39.18017578 C11.8720166 39.15286377 11.8720166 39.15286377 10.25 39.125 C6.8675 39.08375 3.485 39.0425 0 39 C0 26.13 0 13.26 0 0 Z " fill="#05A842" transform="translate(290,232)"/>
<path d="M0 0 C3.96 0 7.92 0 12 0 C14.58563882 6.33481512 16.33687113 12.79825301 18.03515625 19.4140625 C18.90854882 22.66011263 19.90075572 25.8244054 21 29 C22.14932542 25.10518824 23.29384604 21.20898052 24.4375 17.3125 C24.92573242 15.65831055 24.92573242 15.65831055 25.42382812 13.97070312 C25.73642578 12.90400391 26.04902344 11.83730469 26.37109375 10.73828125 C26.65911865 9.75899658 26.94714355 8.77971191 27.24389648 7.77075195 C27.94300528 5.20885796 28.4791998 2.60400098 29 0 C33.29 0 37.58 0 42 0 C42 12.87 42 25.74 42 39 C39.36 39 36.72 39 34 39 C33.505 26.13 33.505 26.13 33 13 C32.401875 15.10375 31.80375 17.2075 31.1875 19.375 C26.36338556 36.27322888 26.36338556 36.27322888 25 39 C22.03 39 19.06 39 16 39 C13.69 31.74 11.38 24.48 9 17 C8.67 24.26 8.34 31.52 8 39 C5.36 39 2.72 39 0 39 C0 26.13 0 13.26 0 0 Z " fill="#0AA945" transform="translate(205,232)"/>
<path d="M0 0 C4.29 0 8.58 0 13 0 C13 4.29 13 8.58 13 13 C17.62 13 22.24 13 27 13 C27 17.62 27 22.24 27 27 C22.38 27 17.76 27 13 27 C13 31.29 13 35.58 13 40 C8.71 40 4.42 40 0 40 C0 35.71 0 31.42 0 27 C-4.62 27 -9.24 27 -14 27 C-14 22.38 -14 17.76 -14 13 C-9.38 13 -4.76 13 0 13 C0 8.71 0 4.42 0 0 Z " fill="#085E3F" transform="translate(147,256)"/>
<path d="M0 0 C9.24 0 18.48 0 28 0 C28 1.98 28 3.96 28 6 C21.4 6 14.8 6 8 6 C8 9.3 8 12.6 8 16 C14.27 16 20.54 16 27 16 C27 18.31 27 20.62 27 23 C20.73 23 14.46 23 8 23 C8 26.3 8 29.6 8 33 C14.6 33 21.2 33 28 33 C28 34.98 28 36.96 28 39 C18.76 39 9.52 39 0 39 C0 26.13 0 13.26 0 0 Z " fill="#0BAA47" transform="translate(255,232)"/>
<path d="M0 0 C8.91 0 17.82 0 27 0 C27 1.98 27 3.96 27 6 C20.4 6 13.8 6 7 6 C7 9.3 7 12.6 7 16 C13.27 16 19.54 16 26 16 C26 18.31 26 20.62 26 23 C20.06 23 14.12 23 8 23 C8 28.28 8 33.56 8 39 C5.36 39 2.72 39 0 39 C0 26.13 0 13.26 0 0 Z " fill="#0DAA47" transform="translate(348,232)"/>
<path d="M0 0 C2.97 0 5.94 0 9 0 C10.33858524 2.28874173 11.67101014 4.58069656 13 6.875 C13.3815625 7.52597656 13.763125 8.17695313 14.15625 8.84765625 C17 13.7734375 17 13.7734375 17 16 C17.66 16 18.32 16 19 16 C19.20625 15.21625 19.4125 14.4325 19.625 13.625 C21.4956706 8.69323204 23.45847296 3.97266946 27 0 C30.059749 -0.90251589 31.78018383 -0.55514072 35 0 C33.92113675 3.18110534 32.51402169 5.83884073 30.65234375 8.609375 C23.86313957 18.85528523 21.47737621 26.71834089 22 39 C19.36 39 16.72 39 14 39 C14.07863281 38.10023438 14.15726562 37.20046875 14.23828125 36.2734375 C14.49334629 22.87581091 8.40997691 13.82476823 1.17749023 2.87915039 C0 1 0 1 0 0 Z " fill="#09A945" transform="translate(377,232)"/>
<path d="M0 0 C10.65517241 0 10.65517241 0 15 3 C18.64308958 6.88596222 18.50222726 11.25442595 18.3515625 16.3359375 C17.85218783 20.1200878 16.61201533 22.24679465 14 25 C9.30835888 27.94903156 6.03147378 27 0 27 C0 18.09 0 9.18 0 0 Z " fill="#FAFDFB" transform="translate(298,238)"/>
<path d="M0 0 C2.64 0 5.28 0 8 0 C8 12.87 8 25.74 8 39 C5.36 39 2.72 39 0 39 C0 26.13 0 13.26 0 0 Z " fill="#08A844" transform="translate(331,232)"/>
<path d="M0 0 C0.33 0 0.66 0 1 0 C1 9.9 1 19.8 1 30 C0.67 30 0.34 30 0 30 C-0.02505615 29.44014404 -0.0501123 28.88028809 -0.07592773 28.3034668 C-0.19203745 25.76458695 -0.3146958 23.22606447 -0.4375 20.6875 C-0.47681641 19.80642578 -0.51613281 18.92535156 -0.55664062 18.01757812 C-0.59853516 17.17001953 -0.64042969 16.32246094 -0.68359375 15.44921875 C-0.73858032 14.27879028 -0.73858032 14.27879028 -0.79467773 13.0847168 C-0.94125263 10.80670899 -0.94125263 10.80670899 -2 8 C-1.54451823 5.26187393 -0.74685247 2.6798824 0 0 Z " fill="#E1F4E8" transform="translate(238,241)"/>
</svg>
